<mxfile host="app.diagrams.net" modified="2022-03-21T14:16:48.908Z" agent="5.0 (Windows NT 10.0; Win64; x64) AppleWebKit/537.36 (KHTML, like Gecko) Chrome/99.0.4844.82 Safari/537.36" etag="T4yVkLiBA18POesZXzgY" version="17.1.3" type="github">
  <diagram id="C5RBs43oDa-KdzZeNtuy" name="Page-1">
    <mxGraphModel dx="868" dy="450" grid="1" gridSize="10" guides="1" tooltips="1" connect="1" arrows="1" fold="1" page="1" pageScale="1" pageWidth="827" pageHeight="1169" math="0" shadow="0">
      <root>
        <mxCell id="WIyWlLk6GJQsqaUBKTNV-0" />
        <mxCell id="WIyWlLk6GJQsqaUBKTNV-1" parent="WIyWlLk6GJQsqaUBKTNV-0" />
        <mxCell id="rc6krEfufsNPXcGU65vv-0" value="" style="edgeStyle=orthogonalEdgeStyle;rounded=0;orthogonalLoop=1;jettySize=auto;html=1;" edge="1" parent="WIyWlLk6GJQsqaUBKTNV-1" source="rc6krEfufsNPXcGU65vv-1">
          <mxGeometry relative="1" as="geometry">
            <mxPoint x="220" y="290" as="targetPoint" />
          </mxGeometry>
        </mxCell>
        <mxCell id="rc6krEfufsNPXcGU65vv-1" value="AX &lt;font size=&quot;1&quot;&gt;&amp;lt;&lt;/font&gt;---&amp;nbsp; 0700h&lt;br&gt;DS&amp;nbsp;&lt;font style=&quot;font-size: 10px&quot;&gt;&amp;lt;&lt;/font&gt;&lt;font style=&quot;font-size: 12px&quot;&gt;---&lt;/font&gt;&amp;nbsp; AX&lt;br&gt;DI&amp;nbsp;&lt;font size=&quot;1&quot;&gt;&amp;lt;&lt;/font&gt;---&amp;nbsp; 0h&lt;br&gt;CX&amp;nbsp;&lt;font size=&quot;1&quot;&gt;&amp;lt;&lt;/font&gt;---&amp;nbsp; 8" style="rounded=1;whiteSpace=wrap;html=1;fontSize=12;glass=0;strokeWidth=1;shadow=0;" vertex="1" parent="WIyWlLk6GJQsqaUBKTNV-1">
          <mxGeometry x="145" y="180" width="150" height="70" as="geometry" />
        </mxCell>
        <mxCell id="rc6krEfufsNPXcGU65vv-2" value="" style="edgeStyle=orthogonalEdgeStyle;rounded=0;orthogonalLoop=1;jettySize=auto;html=1;" edge="1" parent="WIyWlLk6GJQsqaUBKTNV-1" source="rc6krEfufsNPXcGU65vv-3" target="rc6krEfufsNPXcGU65vv-1">
          <mxGeometry relative="1" as="geometry" />
        </mxCell>
        <mxCell id="rc6krEfufsNPXcGU65vv-3" value="START" style="ellipse;whiteSpace=wrap;html=1;" vertex="1" parent="WIyWlLk6GJQsqaUBKTNV-1">
          <mxGeometry x="160" y="120" width="120" height="40" as="geometry" />
        </mxCell>
        <mxCell id="rc6krEfufsNPXcGU65vv-4" style="edgeStyle=orthogonalEdgeStyle;rounded=0;orthogonalLoop=1;jettySize=auto;html=1;exitX=0.5;exitY=1;exitDx=0;exitDy=0;fontSize=9;" edge="1" parent="WIyWlLk6GJQsqaUBKTNV-1" source="rc6krEfufsNPXcGU65vv-1" target="rc6krEfufsNPXcGU65vv-1">
          <mxGeometry relative="1" as="geometry" />
        </mxCell>
        <mxCell id="rc6krEfufsNPXcGU65vv-5" value="" style="edgeStyle=orthogonalEdgeStyle;rounded=0;orthogonalLoop=1;jettySize=auto;html=1;" edge="1" parent="WIyWlLk6GJQsqaUBKTNV-1" source="rc6krEfufsNPXcGU65vv-6" target="rc6krEfufsNPXcGU65vv-10">
          <mxGeometry relative="1" as="geometry" />
        </mxCell>
        <mxCell id="rc6krEfufsNPXcGU65vv-6" value="AX&amp;nbsp;&lt;font style=&quot;font-size: 10px&quot;&gt;&amp;lt;&lt;/font&gt;&lt;font style=&quot;font-size: 13px&quot;&gt;---&lt;/font&gt;&amp;nbsp; DI" style="rounded=1;whiteSpace=wrap;html=1;fontSize=12;glass=0;strokeWidth=1;shadow=0;" vertex="1" parent="WIyWlLk6GJQsqaUBKTNV-1">
          <mxGeometry x="157.5" y="400" width="125" height="30" as="geometry" />
        </mxCell>
        <mxCell id="rc6krEfufsNPXcGU65vv-7" value="" style="edgeStyle=orthogonalEdgeStyle;rounded=0;orthogonalLoop=1;jettySize=auto;html=1;" edge="1" parent="WIyWlLk6GJQsqaUBKTNV-1" source="rc6krEfufsNPXcGU65vv-8" target="rc6krEfufsNPXcGU65vv-16">
          <mxGeometry relative="1" as="geometry" />
        </mxCell>
        <mxCell id="rc6krEfufsNPXcGU65vv-8" value="[DI]&amp;nbsp;&lt;font style=&quot;font-size: 10px&quot;&gt;&amp;lt;&lt;/font&gt;&lt;font style=&quot;font-size: 13px&quot;&gt;---&lt;/font&gt;&amp;nbsp; AL" style="rounded=1;whiteSpace=wrap;html=1;fontSize=12;glass=0;strokeWidth=1;shadow=0;" vertex="1" parent="WIyWlLk6GJQsqaUBKTNV-1">
          <mxGeometry x="157.5" y="510" width="125" height="30" as="geometry" />
        </mxCell>
        <mxCell id="rc6krEfufsNPXcGU65vv-9" value="" style="edgeStyle=orthogonalEdgeStyle;rounded=0;orthogonalLoop=1;jettySize=auto;html=1;fontSize=12;" edge="1" parent="WIyWlLk6GJQsqaUBKTNV-1" target="rc6krEfufsNPXcGU65vv-8">
          <mxGeometry relative="1" as="geometry">
            <mxPoint x="220" y="485" as="sourcePoint" />
          </mxGeometry>
        </mxCell>
        <mxCell id="rc6krEfufsNPXcGU65vv-10" value="AX&amp;nbsp;&lt;font style=&quot;font-size: 10px&quot;&gt;&amp;lt;&lt;/font&gt;&lt;font style=&quot;font-size: 13px&quot;&gt;---&lt;/font&gt;&amp;nbsp; AX * DI" style="rounded=1;whiteSpace=wrap;html=1;fontSize=12;glass=0;strokeWidth=1;shadow=0;" vertex="1" parent="WIyWlLk6GJQsqaUBKTNV-1">
          <mxGeometry x="157.5" y="450" width="125" height="40" as="geometry" />
        </mxCell>
        <mxCell id="rc6krEfufsNPXcGU65vv-11" value="END" style="ellipse;whiteSpace=wrap;html=1;" vertex="1" parent="WIyWlLk6GJQsqaUBKTNV-1">
          <mxGeometry x="340" y="350" width="120" height="40" as="geometry" />
        </mxCell>
        <mxCell id="rc6krEfufsNPXcGU65vv-12" value="DI = CX" style="rhombus;whiteSpace=wrap;html=1;shadow=0;fontFamily=Helvetica;fontSize=12;align=center;strokeWidth=1;spacing=6;spacingTop=-4;" vertex="1" parent="WIyWlLk6GJQsqaUBKTNV-1">
          <mxGeometry x="170" y="290" width="100" height="80" as="geometry" />
        </mxCell>
        <mxCell id="rc6krEfufsNPXcGU65vv-13" value="No" style="edgeStyle=orthogonalEdgeStyle;rounded=0;html=1;jettySize=auto;orthogonalLoop=1;fontSize=11;endArrow=block;endFill=0;endSize=8;strokeWidth=1;shadow=0;labelBackgroundColor=none;entryX=0.5;entryY=0;entryDx=0;entryDy=0;" edge="1" parent="WIyWlLk6GJQsqaUBKTNV-1" source="rc6krEfufsNPXcGU65vv-12" target="rc6krEfufsNPXcGU65vv-6">
          <mxGeometry x="0.2" y="10" relative="1" as="geometry">
            <mxPoint as="offset" />
            <mxPoint x="260" y="415" as="targetPoint" />
            <Array as="points" />
            <mxPoint x="220" y="405" as="sourcePoint" />
          </mxGeometry>
        </mxCell>
        <mxCell id="rc6krEfufsNPXcGU65vv-14" value="Yes" style="rounded=0;html=1;jettySize=auto;orthogonalLoop=1;fontSize=11;endArrow=block;endFill=0;endSize=8;strokeWidth=1;shadow=0;labelBackgroundColor=none;edgeStyle=orthogonalEdgeStyle;exitX=1;exitY=0.5;exitDx=0;exitDy=0;entryX=0.5;entryY=0;entryDx=0;entryDy=0;" edge="1" parent="WIyWlLk6GJQsqaUBKTNV-1" source="rc6krEfufsNPXcGU65vv-12" target="rc6krEfufsNPXcGU65vv-11">
          <mxGeometry x="0.0169" y="10" relative="1" as="geometry">
            <mxPoint as="offset" />
            <mxPoint x="220" y="710" as="targetPoint" />
            <Array as="points">
              <mxPoint x="400" y="330" />
            </Array>
            <mxPoint x="290" y="330" as="sourcePoint" />
          </mxGeometry>
        </mxCell>
        <mxCell id="rc6krEfufsNPXcGU65vv-15" style="edgeStyle=orthogonalEdgeStyle;rounded=0;orthogonalLoop=1;jettySize=auto;html=1;" edge="1" parent="WIyWlLk6GJQsqaUBKTNV-1" source="rc6krEfufsNPXcGU65vv-16">
          <mxGeometry relative="1" as="geometry">
            <mxPoint x="220" y="270" as="targetPoint" />
            <Array as="points">
              <mxPoint x="90" y="570" />
              <mxPoint x="90" y="270" />
            </Array>
          </mxGeometry>
        </mxCell>
        <mxCell id="rc6krEfufsNPXcGU65vv-16" value="DI&amp;nbsp;&lt;font size=&quot;1&quot;&gt;&amp;lt;&lt;/font&gt;&lt;font style=&quot;font-size: 13px&quot;&gt;---&lt;/font&gt;&amp;nbsp; DI + 1" style="rounded=1;whiteSpace=wrap;html=1;fontSize=12;glass=0;strokeWidth=1;shadow=0;" vertex="1" parent="WIyWlLk6GJQsqaUBKTNV-1">
          <mxGeometry x="157.5" y="555" width="125" height="30" as="geometry" />
        </mxCell>
      </root>
    </mxGraphModel>
  </diagram>
</mxfile>
